<svg xmlns="http://www.w3.org/2000/svg" xmlns:xlink="http://www.w3.org/1999/xlink" xml:space="preserve" version="1.1" style="shape-rendering:geometricPrecision;text-rendering:geometricPrecision;image-rendering:optimizeQuality;" viewBox="0 0 847 1058.75" x="0px" y="0px" fill-rule="evenodd" clip-rule="evenodd"><defs><style type="text/css">
   
    .fil0 {fill:black;fill-rule:nonzero}
   
  </style></defs><g><path class="fil0" d="M419 16c127,0 231,104 231,231 0,128 -104,231 -231,231 -128,0 -232,-103 -232,-231 0,-127 104,-231 232,-231zm-149 501l307 0c139,0 252,113 252,252l0 62 -51 0 0 -62c0,-110 -90,-201 -201,-201l-307 0c-111,0 -201,91 -201,201l0 62 -52 0 0 -62c0,-139 114,-252 253,-252zm149 -450c-100,0 -180,81 -180,180 0,100 80,180 180,180 99,0 179,-80 179,-180 0,-99 -80,-180 -179,-180z"/></g><text x="0" y="862" fill="#000000" font-size="5px" font-weight="bold" font-family="'Helvetica Neue', Helvetica, Arial-Unicode, Arial, Sans-serif">Created by amantaka</text><text x="0" y="867" fill="#000000" font-size="5px" font-weight="bold" font-family="'Helvetica Neue', Helvetica, Arial-Unicode, Arial, Sans-serif">from the Noun Project</text></svg>